<svg xmlns="http://www.w3.org/2000/svg" viewBox="0 0 32 32"><rect width="32" height="32" rx="3" fill="#1c1815"/><g fill="#cbc5b8"><rect x="3" y="2" width="4" height="3" rx=".8"/><rect x="11" y="2" width="4" height="3" rx=".8"/><rect x="19" y="2" width="4" height="3" rx=".8"/><rect x="27" y="2" width="3" height="3" rx=".8"/><rect x="3" y="27" width="4" height="3" rx=".8"/><rect x="11" y="27" width="4" height="3" rx=".8"/><rect x="19" y="27" width="4" height="3" rx=".8"/><rect x="27" y="27" width="3" height="3" rx=".8"/></g><rect x="4" y="8" width="24" height="16" fill="#efebe3"/><path d="M6.5 16.5c0-5 7-7.5 12.5-6.5 5 .9 7 4.2 5.6 7-1.6 3.4-8.4 5-13.6 3.5C7.5 19.4 6 17 8 14" fill="none" stroke="#c3261b" stroke-width="2.2" stroke-linecap="round"/></svg>
